<?xml version="1.0" encoding="utf-8"?>
<!-- Generator: Adobe Illustrator 22.1.0, SVG Export Plug-In . SVG Version: 6.00 Build 0)  -->
<svg version="1.1" id="レイヤー_1" xmlns="http://www.w3.org/2000/svg" xmlns:xlink="http://www.w3.org/1999/xlink" x="0px"
	 y="0px" viewBox="0 0 586 396.2" style="enable-background:new 0 0 586 396.2;" xml:space="preserve">
<style type="text/css">
	.st0{fill:#A0A0A0;}
	.st1{fill:#66BAFF;}
</style>
<path class="st0" d="M204,234c0,13.9-5.1,26.8-13.9,38c-0.6,0.8-1.2,1.5-1.9,2.3c-0.4,0.5-1.1,0.6-1.6,0.3c-1.7-0.8-3.4-1.6-5.1-2.5
	c-0.2-0.1-0.4-0.2-0.6-0.2H38.3C17.4,272,0.2,255.3,0,234.4c0-0.1,0-0.3,0-0.4c0-41.6,45.7-75.3,102-75.3c1,0,2,0,3,0
	C160,159.9,204,193.1,204,234z"/>
<path class="st0" d="M395.3,148.7c0,22.7-5.6,44.1-15.5,63c-13.4,25.5-34.6,46.6-60.7,60.2c-0.2,0.1-0.4,0.2-0.6,0.2H190.7
	c-0.4,0-0.8,0.2-1.1,0.5c-0.5,0.6-1,1.2-1.5,1.8c-0.4,0.5-1.1,0.6-1.6,0.3c-1.8-0.8-3.6-1.7-5.4-2.6
	c-42.7-22.1-72.5-64.2-76.2-113.3c-0.3-3.3-0.4-6.7-0.4-10c0-77.3,65.1-140,145.3-140c29.3,0,56.5,8.3,79.3,22.7
	c38.4,24.1,64.2,65.2,65.9,112.2C395.3,145.2,395.3,146.9,395.3,148.7z"/>
<path class="st0" d="M506.7,244c0,9.4-1.5,18.4-4.3,27.1c-0.2,0.6-0.7,0.9-1.3,0.9H275c-0.6,0-1.1-0.4-1.3-0.9
	c-2.8-8.6-4.3-17.7-4.3-27.1c0-31.4,16.9-59.4,43.4-77.8c20.5-14.3,46.7-22.8,75.2-22.8c2.4,0,4.8,0.1,7.2,0.2
	c23.5,1.2,45.1,8.2,62.9,19.3c12.4,7.7,23,17.4,31,28.6c7.9,10.8,13.3,23,15.9,36c1,5,1.5,10.1,1.6,15.4
	C506.7,243.2,506.7,243.6,506.7,244z"/>
<path class="st0" d="M553.7,272h-82.3c-0.8,0-1.5-0.7-1.4-1.5c1.4-13.1,8.4-24.9,18.9-33.5c4.7-3.9,10.2-7.1,16.1-9.6
	c8.2-3.4,17.4-5.3,27.2-5.3c11.3,0,22,2.6,31.2,7.1c0.2,0.1,0.4,0.2,0.5,0.3C585,240.1,577.3,272,553.7,272z"/>
<ellipse class="st0" cx="413.3" cy="108" rx="119.3" ry="108"/>
<ellipse class="st0" cx="520" cy="184" rx="66" ry="60"/>
<path class="st0" d="M188.2,274.3C188.2,274.3,188.2,274.3,188.2,274.3c-0.4,0.5-1.1,0.6-1.6,0.4c0,0,0,0-0.1,0
	c-1.3-0.6-0.9-2.6,0.6-2.6h0.1C188.3,272,189,273.4,188.2,274.3z"/>
<path class="st1" d="M112,395.3L112,395.3c-5.5-3.2-7.4-10.2-4.2-15.7l48.8-84.5c3.2-5.5,10.2-7.4,15.7-4.2l0,0
	c5.5,3.2,7.4,10.2,4.2,15.7L127.7,391C124.5,396.5,117.5,398.4,112,395.3z"/>
<path class="st1" d="M410.6,395.3L410.6,395.3c-5.5-3.2-7.4-10.2-4.2-15.7l48.8-84.5c3.2-5.5,10.2-7.4,15.7-4.2v0
	c5.5,3.2,7.4,10.2,4.2,15.7L426.4,391C423.2,396.5,416.2,398.4,410.6,395.3z"/>
<path class="st1" d="M336,395.3L336,395.3c-5.5-3.2-7.4-10.2-4.2-15.7l48.8-84.5c3.2-5.5,10.2-7.4,15.7-4.2l0,0
	c5.5,3.2,7.4,10.2,4.2,15.7L351.7,391C348.5,396.5,341.5,398.4,336,395.3z"/>
<path class="st1" d="M261.3,395.3L261.3,395.3c-5.5-3.2-7.4-10.2-4.2-15.7l48.8-84.5c3.2-5.5,10.2-7.4,15.7-4.2l0,0
	c5.5,3.2,7.4,10.2,4.2,15.7L277,391C273.9,396.5,266.8,398.4,261.3,395.3z"/>
<path class="st1" d="M186.6,395.3L186.6,395.3c-5.5-3.2-7.4-10.2-4.2-15.7l48.8-84.5c3.2-5.5,10.2-7.4,15.7-4.2l0,0
	c5.5,3.2,7.4,10.2,4.2,15.7L202.4,391C199.2,396.5,192.2,398.4,186.6,395.3z"/>
</svg>
