<?xml version="1.0" encoding="utf-8"?>
<!-- Generator: Adobe Illustrator 22.1.0, SVG Export Plug-In . SVG Version: 6.00 Build 0)  -->
<svg version="1.1" id="path" xmlns="http://www.w3.org/2000/svg" xmlns:xlink="http://www.w3.org/1999/xlink" x="0px" y="0px"
	 viewBox="0 0 283.5 283.5" style="enable-background:new 0 0 283.5 283.5;" xml:space="preserve">
<path d="M143,6.2C68.7,6.2,8.2,66.7,8.2,141c0,74.3,60.5,134.8,134.8,134.8c74.3,0,134.8-60.5,134.8-134.8
	C277.8,66.7,217.3,6.2,143,6.2z M141.5,9.2v129.3L27.4,204.3c-10.3-18.8-16.2-40.4-16.2-63.3C11.2,68.8,69.5,10,141.5,9.2z
	 M143,272.8c-48.7,0-91.3-26.5-114.1-65.9l114.1-65.8l-0.1,0.1L257.1,207C234.2,246.3,191.7,272.8,143,272.8z M258.6,204.4
	l-114.1-65.7V9.2c72,0.8,130.3,59.6,130.3,131.8C274.8,164,268.9,185.6,258.6,204.4z"/>
</svg>
